<?xml version="1.0" encoding="UTF-8" standalone="no"?><!-- Generator: Gravit.io --><svg xmlns="http://www.w3.org/2000/svg" xmlns:xlink="http://www.w3.org/1999/xlink" style="isolation:isolate" viewBox="0 0 375 375" width="375pt" height="375pt"><defs><clipPath id="_clipPath_pvWrIoP8qsLQwkOEBjUZXiKdHzMGt1U5"><rect width="375" height="375"/></clipPath></defs><g clip-path="url(#_clipPath_pvWrIoP8qsLQwkOEBjUZXiKdHzMGt1U5)"><rect width="375" height="375" style="fill:rgb(0,0,0)" fill-opacity="0"/><g><path d=" M 187.5 103.258 C 203.485 103.258 216.462 116.235 216.462 132.22 C 216.462 148.205 203.485 161.182 187.5 161.182" fill="none" vector-effect="non-scaling-stroke" stroke-width="5" stroke="rgb(243,166,122)" stroke-linejoin="round" stroke-linecap="round" stroke-miterlimit="3"/><path d=" M 187.5 199.327 C 198.026 199.327 206.572 207.873 206.572 218.399 C 206.572 228.926 198.026 237.472 187.5 237.472" fill="none" vector-effect="non-scaling-stroke" stroke-width="5" stroke="rgb(243,166,122)" stroke-linejoin="round" stroke-linecap="round" stroke-miterlimit="3"/><path d=" M 187.5 161.182 C 198.026 161.182 206.572 169.728 206.572 180.254 C 206.572 190.781 198.026 199.327 187.5 199.327" fill="none" vector-effect="non-scaling-stroke" stroke-width="5" stroke="rgb(243,166,122)" stroke-linejoin="round" stroke-linecap="round" stroke-miterlimit="3"/><path d=" M 187.5 237.472 C 198.026 237.472 212.285 244.546 215.049 256.544 C 223.349 292.57 198.026 337.602 187.5 337.602" fill="none" vector-effect="non-scaling-stroke" stroke-width="5" stroke="rgb(243,166,122)" stroke-linejoin="round" stroke-linecap="round" stroke-miterlimit="3"/><path d=" M 205.16 108.909 C 244.717 65.82 249.397 63.7 253.194 55.224 Q 256.991 46.747 261.671 15.666" fill="none" vector-effect="non-scaling-stroke" stroke-width="5" stroke="rgb(243,166,122)" stroke-linejoin="round" stroke-linecap="round" stroke-miterlimit="3"/><path d=" M 277.211 75.003 Q 277.686 83.336 277.211 89.13 C 276.737 94.925 248.471 108.008 240.479 124.45 C 232.487 140.891 242.936 152.698 233.415 164.007 Q 223.895 175.317 206.572 178.135" fill="none" vector-effect="non-scaling-stroke" stroke-width="5" stroke="rgb(243,166,122)" stroke-linejoin="round" stroke-linecap="round" stroke-miterlimit="3"/><path d=" M 296.99 279.855 Q 297.167 271.025 294.165 265.727 C 291.162 260.429 255.402 258.134 250.369 233.234 C 245.336 208.333 216.72 201.86 192.445 199.327" fill="none" vector-effect="non-scaling-stroke" stroke-width="5" stroke="rgb(243,166,122)" stroke-linejoin="round" stroke-linecap="round" stroke-miterlimit="3"/><path d=" M 192.445 237.472 Q 223.997 232.292 237.654 247.361 C 251.31 262.431 228.117 349.125 237.654 356.145 Q 247.19 363.165 253.194 354.732" fill="none" vector-effect="non-scaling-stroke" stroke-width="5" stroke="rgb(243,166,122)" stroke-linejoin="round" stroke-linecap="round" stroke-miterlimit="3"/><path d=" M 187.5 103.258 C 171.515 103.258 158.538 116.235 158.538 132.22 C 158.538 148.205 171.515 161.182 187.5 161.182" fill="none" vector-effect="non-scaling-stroke" stroke-width="5" stroke="rgb(243,166,122)" stroke-linejoin="round" stroke-linecap="round" stroke-miterlimit="3"/><path d=" M 187.5 199.327 C 176.974 199.327 168.428 207.873 168.428 218.399 C 168.428 228.926 176.974 237.472 187.5 237.472" fill="none" vector-effect="non-scaling-stroke" stroke-width="5" stroke="rgb(243,166,122)" stroke-linejoin="round" stroke-linecap="round" stroke-miterlimit="3"/><path d=" M 187.5 161.182 C 176.974 161.182 168.428 169.728 168.428 180.254 C 168.428 190.781 176.974 199.327 187.5 199.327" fill="none" vector-effect="non-scaling-stroke" stroke-width="5" stroke="rgb(243,166,122)" stroke-linejoin="round" stroke-linecap="round" stroke-miterlimit="3"/><path d=" M 187.5 237.472 C 176.974 237.472 162.715 244.546 159.951 256.544 C 151.651 292.57 176.974 337.602 187.5 337.602" fill="none" vector-effect="non-scaling-stroke" stroke-width="5" stroke="rgb(243,166,122)" stroke-linejoin="round" stroke-linecap="round" stroke-miterlimit="3"/><path d=" M 169.84 108.909 C 130.283 65.82 125.603 63.7 121.806 55.224 Q 118.009 46.747 113.329 15.666" fill="none" vector-effect="non-scaling-stroke" stroke-width="5" stroke="rgb(243,166,122)" stroke-linejoin="round" stroke-linecap="round" stroke-miterlimit="3"/><path d=" M 97.789 75.003 Q 97.314 83.336 97.789 89.13 C 98.263 94.925 126.529 108.008 134.521 124.45 C 142.513 140.891 132.064 152.698 141.585 164.007 Q 151.105 175.317 168.428 178.135" fill="none" vector-effect="non-scaling-stroke" stroke-width="5" stroke="rgb(243,166,122)" stroke-linejoin="round" stroke-linecap="round" stroke-miterlimit="3"/><path d=" M 78.01 279.855 Q 77.833 271.025 80.835 265.727 C 83.838 260.429 119.598 258.134 124.631 233.234 C 129.664 208.333 158.28 201.86 182.555 199.327" fill="none" vector-effect="non-scaling-stroke" stroke-width="5" stroke="rgb(243,166,122)" stroke-linejoin="round" stroke-linecap="round" stroke-miterlimit="3"/><path d=" M 182.555 237.472 Q 151.003 232.292 137.346 247.361 C 123.69 262.431 146.883 349.125 137.346 356.145 Q 127.81 363.165 121.806 354.732" fill="none" vector-effect="non-scaling-stroke" stroke-width="5" stroke="rgb(243,166,122)" stroke-linejoin="round" stroke-linecap="round" stroke-miterlimit="3"/></g><path d="M 15 -50 L 35 -50 C 43.279 -50 50 -43.279 50 -35 L 50 0 L 0 0 L 0 -35 C 0 -43.279 6.721 -50 15 -50 Z" style="stroke:none;fill:#A66742;stroke-miterlimit:10;"/><path d="M 80 -50 L 100 -50 C 108.279 -50 115 -43.279 115 -35 L 115 0 L 65 0 L 65 -35 C 65 -43.279 71.721 -50 80 -50 Z" style="stroke:none;fill:#FFBE99;stroke-miterlimit:10;"/><path d="M 145 -50 L 165 -50 C 173.279 -50 180 -43.279 180 -35 L 180 0 L 130 0 L 130 -35 C 130 -43.279 136.721 -50 145 -50 Z" style="stroke:none;fill:#F3A67A;stroke-miterlimit:10;"/><path d="M 210 -50 L 230 -50 C 238.279 -50 245 -43.279 245 -35 L 245 0 L 195 0 L 195 -35 C 195 -43.279 201.721 -50 210 -50 Z" style="stroke:none;fill:#32A6A5;stroke-miterlimit:10;"/><path d="M 275 -50 L 295 -50 C 303.279 -50 310 -43.279 310 -35 L 310 0 L 260 0 L 260 -35 C 260 -43.279 266.721 -50 275 -50 Z" style="stroke:none;fill:#79F2F2;stroke-miterlimit:10;"/><path d="M 340 -50 L 360 -50 C 368.279 -50 375 -43.279 375 -35 L 375 0 L 325 0 L 325 -35 C 325 -43.279 331.721 -50 340 -50 Z" style="stroke:none;fill:#4F4BA6;stroke-miterlimit:10;"/></g></svg>